<svg width="1300" height="329" viewBox="0 0 1300 329" xmlns="http://www.w3.org/2000/svg" xmlns:xlink="http://www.w3.org/1999/xlink"><title>Page 1</title><defs><path id="a" d="M142.827 1548.86V.402H.231V1548.86h142.596z"/><path id="c" d="M.083 1548.873h185.64V.416H.084z"/><path id="e" d="M.216 1548.873h146.492V.416H.216v1548.457z"/><path id="g" d="M.217 1548.873h150.959V.416H.216v1548.457z"/><path id="i" d="M130.513.402H.363v746.895h130.15V.402z"/></defs><g fill="none" fill-rule="evenodd" opacity=".1"><g transform="rotate(90 620.092 805.475)"><mask id="b" fill="#fff"><use xlink:href="#a"/></mask><path fill="#FFF" mask="url(#b)" d="M64.236 69.313L19.294 114.39v137.385l56.421 56.59v295.824l66.14 66.348v347.716L.231 1160.309v215.832l68.48 68.689v104.03h.972v-104.434l-68.478-68.69v-215.023l141.624-142.058V670.132l-66.142-66.348V307.96l-56.42-56.59V114.792l44.94-45.076V.402h-.971z"/></g><g transform="rotate(90 769.808 655.76)"><mask id="d" fill="#fff"><use xlink:href="#c"/></mask><path fill="#FFF" mask="url(#d)" d="M.083 57.683l44.598 44.734v263.336l42.508 42.637v102.056l50.773 50.927v113.745l-29.18 29.27v165.299l75.482 75.711v263.217l-91.607 91.889-.216.214v162.958l31.124 31.223v53.974h1.46v-54.58L93.9 1463.068v-161.746l91.61-91.887.214-.216V944.793l-75.485-75.713V704.995l28.968-29.056.213-.216V560.769l-50.773-50.93V407.785l-42.508-42.639V101.811L1.54 57.077V.417H.083z"/></g><g transform="rotate(90 643.865 781.703)"><mask id="f" fill="#fff"><use xlink:href="#e"/></mask><path fill="#FFF" mask="url(#f)" d="M.216 293.557l83.46 83.71v300.898l61.086 61.272v280.966L33.483 1132.02v130.378l63.81 64.005v222.47h1.944v-223.277L35.43 1261.59v-128.764l111.28-111.616V738.63L85.62 677.357V376.46l-83.459-83.71V.416H.216z"/></g><path d="M1172.62 164.464l-133.473 133.064h-425.77l-48.391-48.243H87.296l-131.13-130.733h-79.457v.972h79.053L86.893 250.257h477.689l48.391 48.243h426.578l133.473-133.064h252.142v-.972z" fill="#FFF"/><g transform="rotate(90 682.897 742.67)"><mask id="h" fill="#fff"><use xlink:href="#g"/></mask><path fill="#FFF" mask="url(#h)" d="M95.346 115.554L44.181 166.87v222.9l103.107 103.423v376.943l-73.927 74.151v204.5l-73.144 73.37v326.715h3.887v-325.099l73.147-73.37v-204.5l73.925-74.151V491.578L48.07 388.155V168.486l51.166-51.317V.416h-3.89z"/></g><path fill="#FFF" d="M1288.678 40.989l-32 31.905h-130.27L996.84-56.283H794.597l-46.832 46.69H462.949L353.676-118.538H-4.674l-59.321 59.14h-59.31v5.837h61.735l59.321-59.143h353.5L460.527-3.76h289.66l46.833-46.692h197.396l129.567 129.18H1259.1l32-31.906h134.052V40.99z"/><path d="M824.236 170.562c0-5.08 4.118-9.2 9.196-9.2 5.077 0 9.195 4.12 9.195 9.2 0 5.08-4.118 9.2-9.195 9.2-5.078 0-9.196-4.12-9.196-9.2m23.61 2.5h51.438L999.775 72.876h201.781l74.943 74.714h148.653v-5.78H1278.9l-74.943-74.714H997.374L896.884 167.28h-49.193c-1.492-6.507-7.303-11.366-14.26-11.366-8.087 0-14.643 6.559-14.643 14.65 0 8.09 6.556 14.651 14.644 14.651 7.233 0 13.227-5.256 14.413-12.153" fill="#FFF"/><path d="M833.227 71.694c-4.838 0-8.767-3.924-8.767-8.762a8.768 8.768 0 0 1 17.533 0c0 4.838-3.927 8.762-8.766 8.762m591.925-15.464H1241.29l-64.738 64.503H896.424l-50.36-50.182a14.702 14.702 0 0 0 1.994-7.395c0-8.165-6.62-14.785-14.787-14.785-8.165 0-14.788 6.62-14.788 14.785 0 8.166 6.623 14.785 14.788 14.785 3.352 0 6.432-1.126 8.911-3.005l51.82 51.632h284.976l64.739-64.503h181.435" fill="#FFF"/><path d="M719.49 98.702c0-4.749 3.848-8.6 8.594-8.6 4.746 0 8.593 3.851 8.593 8.6 0 4.748-3.847 8.598-8.593 8.598s-8.595-3.85-8.595-8.598m23.21 2.884h46.113l62.944-62.756h166.806l34.62-34.514h224.169l83.399 83.152h64.403v-5.882h-61.959l-83.4-83.15H1050.74L1016.12 32.95H849.314l-62.946 62.752H742.68c-1.387-6.794-7.396-11.907-14.596-11.907-8.228 0-14.9 6.675-14.9 14.907 0 8.231 6.672 14.906 14.9 14.906 7.241 0 13.271-5.172 14.615-12.022" fill="#FFF"/><g transform="rotate(90 659.124 766.443)"><mask id="j" fill="#fff"><use xlink:href="#i"/></mask><path d="M71.672 732.517c0 4.709-3.819 8.526-8.53 8.526a8.528 8.528 0 0 1-8.529-8.526 8.528 8.528 0 0 1 8.529-8.527c4.711 0 8.53 3.818 8.53 8.527zm58.841-152.9V448.055L3.28 320.439V.4H.362V321.65l127.234 127.616v129.14L61.452 644.75v73.091c-7.368.84-13.096 7.086-13.096 14.676 0 8.162 6.62 14.78 14.786 14.78 8.167 0 14.787-6.618 14.787-14.78 0-7.748-5.97-14.094-13.562-14.718V645.96l66.146-66.344z" fill="#FFF" mask="url(#j)"/></g><path d="M894.642 62.122c0-4.711 3.817-8.53 8.527-8.53 4.707 0 8.524 3.819 8.524 8.53 0 4.711-3.817 8.53-8.524 8.53-4.71 0-8.527-3.819-8.527-8.53m23.305 0c0-2.607-.679-5.053-1.865-7.18l79.732-79.228h203.661l75.64 75.409h150.037v-5.836h-147.615l-75.639-75.408H993.391l-80.97 80.723a14.706 14.706 0 0 0-9.252-3.267c-8.164 0-14.781 6.622-14.781 14.787 0 8.166 6.617 14.787 14.78 14.787 8.162 0 14.78-6.621 14.78-14.787" fill="#FFF"/></g></svg>