<?xml version="1.0" encoding="utf-8"?>
<!-- Generator: Adobe Illustrator 22.1.0, SVG Export Plug-In . SVG Version: 6.00 Build 0)  -->
<svg version="1.1" id="Capa_1" xmlns="http://www.w3.org/2000/svg" xmlns:xlink="http://www.w3.org/1999/xlink" x="0px" y="0px"
	 viewBox="0 0 512 512" style="enable-background:new 0 0 512 512;" xml:space="preserve">
<style type="text/css">
	.st0{fill:#FFFFFF;}
</style>
<g>
	<g>
		<g>
			<path class="st0" d="M442,224.6c0-4.9-3.6-9.1-8.4-9.9l-24.8-3.9l-12.8-30.8l14.8-20.4c2.9-4,2.5-9.5-1-12.9l-44.4-44.3
				c-3.5-3.5-9-3.9-12.9-1L332,116l-30.9-12.8l-4-24.8c-0.8-4.9-5-8.4-9.9-8.4H256c-5.5,0-10,4.5-10,10s4.5,10,10,10h22.8l3.5,21.9
				c0.5,3.4,2.8,6.3,6.1,7.7l41.2,17.1c3.2,1.3,6.9,0.9,9.7-1.1l18-13l32.3,32.3l-13,18c-2,2.8-2.5,6.5-1.1,9.7l17.1,41.2
				c1.3,3.2,4.2,5.5,7.7,6l21.9,3.5l0,45.7l-21.9,3.5c-3.4,0.5-6.3,2.8-7.7,6.1l-17.1,41.2c-1.3,3.2-0.9,6.9,1.1,9.7l13,18
				l-32.3,32.3l-18-13c-2.8-2-6.5-2.5-9.7-1.1l-41.2,17.1c-3.2,1.3-5.5,4.2-6,7.7l-3.5,21.9H256c-5.5,0-10,4.5-10,10s4.5,10,10,10
				h31.4c4.9,0,9.1-3.6,9.9-8.4l3.9-24.9l30.8-12.8l20.4,14.8c4,2.9,9.5,2.5,12.9-1l44.3-44.4c3.5-3.5,3.9-9,1-12.9L396,332
				l12.8-30.9l24.8-4c4.9-0.8,8.4-5,8.4-9.9L442,224.6z"/>
		</g>
	</g>
	<g>
		<g>
			<path class="st0" d="M255.9,321.4c-5.5,0-9.9,4.5-9.9,10c0,5.5,4.5,10,10,10c0.1,0,0.3,0,0.5,0c5.5-0.2,9.8-4.9,9.6-10.4
				C265.9,325.6,261.3,321.4,255.9,321.4z"/>
		</g>
	</g>
	<g>
		<g>
			<path class="st0" d="M256,170.6c-5.5,0-10,4.5-10,10s4.5,10,10,10c36.1,0,65.4,29.4,65.4,65.4c0,24.4-13.4,46.5-35,57.9
				c-4.9,2.6-6.8,8.6-4.2,13.5c1.8,3.4,5.3,5.3,8.9,5.3c1.6,0,3.2-0.4,4.7-1.2c28.1-14.8,45.6-43.8,45.6-75.6
				C341.4,208.9,303.1,170.6,256,170.6z"/>
		</g>
	</g>
	<g>
		<g>
			<path class="st0" d="M58,444H10c-5.5,0-10,4.5-10,10v48c0,5.5,4.5,10,10,10h48c5.5,0,10-4.5,10-10v-48C68,448.5,63.5,444,58,444z
				 M48,492H20v-28h28V492z"/>
		</g>
	</g>
	<g>
		<g>
			<path class="st0" d="M502,444h-48c-5.5,0-10,4.5-10,10v48c0,5.5,4.5,10,10,10h48c5.5,0,10-4.5,10-10v-48
				C512,448.5,507.5,444,502,444z M492,492h-28v-28h28V492z"/>
		</g>
	</g>
	<g>
		<g>
			<path class="st0" d="M58,0H10C4.5,0,0,4.5,0,10v48c0,5.5,4.5,10,10,10h48c5.5,0,10-4.5,10-10V10C68,4.5,63.5,0,58,0z M48,48H20
				V20h28V48z"/>
		</g>
	</g>
	<g>
		<g>
			<path class="st0" d="M502,0h-48c-5.5,0-10,4.5-10,10v48c0,5.5,4.5,10,10,10h48c5.5,0,10-4.5,10-10V10C512,4.5,507.5,0,502,0z
				 M492,48h-28V20h28V48z"/>
		</g>
	</g>
	<g>
		<g>
			<path class="st0" d="M478,387.6c-5.5,0-10,4.5-10,10v10c0,5.5,4.5,10,10,10s10-4.5,10-10v-10C488,392,483.5,387.6,478,387.6z"/>
		</g>
	</g>
	<g>
		<g>
			<path class="st0" d="M478,337.6c-5.5,0-10,4.5-10,10v10c0,5.5,4.5,10,10,10s10-4.5,10-10v-10C488,342,483.5,337.6,478,337.6z"/>
		</g>
	</g>
	<g>
		<g>
			<path class="st0" d="M478,96c-5.5,0-10,4.5-10,10v1.5c0,5.5,4.5,10,10,10s10-4.5,10-10V106C488,100.5,483.5,96,478,96z"/>
		</g>
	</g>
	<g>
		<g>
			<path class="st0" d="M478,287.6c-5.5,0-10,4.5-10,10v10c0,5.5,4.5,10,10,10s10-4.5,10-10v-10C488,292,483.5,287.6,478,287.6z"/>
		</g>
	</g>
	<g>
		<g>
			<path class="st0" d="M478,137.6c-5.5,0-10,4.5-10,10v10c0,5.5,4.5,10,10,10s10-4.5,10-10v-10C488,142,483.5,137.6,478,137.6z"/>
		</g>
	</g>
	<g>
		<g>
			<path class="st0" d="M478,237.6c-5.5,0-10,4.5-10,10v10c0,5.5,4.5,10,10,10s10-4.5,10-10v-10C488,242,483.5,237.6,478,237.6z"/>
		</g>
	</g>
	<g>
		<g>
			<path class="st0" d="M478,187.6c-5.5,0-10,4.5-10,10v10c0,5.5,4.5,10,10,10s10-4.5,10-10v-10C488,192,483.5,187.6,478,187.6z"/>
		</g>
	</g>
	<g>
		<g>
			<path class="st0" d="M34,237.6c-5.5,0-10,4.5-10,10v10c0,5.5,4.5,10,10,10s10-4.5,10-10v-10C44,242,39.5,237.6,34,237.6z"/>
		</g>
	</g>
	<g>
		<g>
			<path class="st0" d="M34,287.6c-5.5,0-10,4.5-10,10v10c0,5.5,4.5,10,10,10s10-4.5,10-10v-10C44,292,39.5,287.6,34,287.6z"/>
		</g>
	</g>
	<g>
		<g>
			<path class="st0" d="M34,96c-5.5,0-10,4.5-10,10v1.5c0,5.5,4.5,10,10,10s10-4.5,10-10V106C44,100.5,39.5,96,34,96z"/>
		</g>
	</g>
	<g>
		<g>
			<path class="st0" d="M34,187.6c-5.5,0-10,4.5-10,10v10c0,5.5,4.5,10,10,10s10-4.5,10-10v-10C44,192,39.5,187.6,34,187.6z"/>
		</g>
	</g>
	<g>
		<g>
			<path class="st0" d="M34,337.6c-5.5,0-10,4.5-10,10v10c0,5.5,4.5,10,10,10s10-4.5,10-10v-10C44,342,39.5,337.6,34,337.6z"/>
		</g>
	</g>
	<g>
		<g>
			<path class="st0" d="M34,137.6c-5.5,0-10,4.5-10,10v10c0,5.5,4.5,10,10,10s10-4.5,10-10v-10C44,142,39.5,137.6,34,137.6z"/>
		</g>
	</g>
	<g>
		<g>
			<path class="st0" d="M34,387.6c-5.5,0-10,4.5-10,10v10c0,5.5,4.5,10,10,10s10-4.5,10-10v-10C44,392,39.5,387.6,34,387.6z"/>
		</g>
	</g>
	<g>
		<g>
			<path class="st0" d="M315.2,468.8h-10c-5.5,0-10,4.5-10,10s4.5,10,10,10h10c5.5,0,10-4.5,10-10S320.8,468.8,315.2,468.8z"/>
		</g>
	</g>
	<g>
		<g>
			<path class="st0" d="M215.2,468.8h-10c-5.5,0-10,4.5-10,10s4.5,10,10,10h10c5.5,0,10-4.5,10-10S220.8,468.8,215.2,468.8z"/>
		</g>
	</g>
	<g>
		<g>
			<path class="st0" d="M265.2,468.8h-10c-5.5,0-10,4.5-10,10s4.5,10,10,10h10c5.5,0,10-4.5,10-10S270.8,468.8,265.2,468.8z"/>
		</g>
	</g>
	<g>
		<g>
			<path class="st0" d="M165.2,468.8h-10c-5.5,0-10,4.5-10,10s4.5,10,10,10h10c5.5,0,10-4.5,10-10S170.8,468.8,165.2,468.8z"/>
		</g>
	</g>
	<g>
		<g>
			<path class="st0" d="M365.2,468.8h-10c-5.5,0-10,4.5-10,10s4.5,10,10,10h10c5.5,0,10-4.5,10-10S370.8,468.8,365.2,468.8z"/>
		</g>
	</g>
	<g>
		<g>
			<path class="st0" d="M115.2,468.8h-10c-5.5,0-10,4.5-10,10s4.5,10,10,10h10c5.5,0,10-4.5,10-10S120.8,468.8,115.2,468.8z"/>
		</g>
	</g>
	<g>
		<g>
			<path class="st0" d="M406.8,468.8h-1.5c-5.5,0-10,4.5-10,10s4.5,10,10,10h1.5c5.5,0,10-4.5,10-10S412.3,468.8,406.8,468.8z"/>
		</g>
	</g>
	<g>
		<g>
			<path class="st0" d="M315.2,24.8h-10c-5.5,0-10,4.5-10,10s4.5,10,10,10h10c5.5,0,10-4.5,10-10S320.8,24.8,315.2,24.8z"/>
		</g>
	</g>
	<g>
		<g>
			<path class="st0" d="M265.2,24.8h-10c-5.5,0-10,4.5-10,10s4.5,10,10,10h10c5.5,0,10-4.5,10-10S270.8,24.8,265.2,24.8z"/>
		</g>
	</g>
	<g>
		<g>
			<path class="st0" d="M406.8,24.8h-1.5c-5.5,0-10,4.5-10,10s4.5,10,10,10h1.5c5.5,0,10-4.5,10-10S412.3,24.8,406.8,24.8z"/>
		</g>
	</g>
	<g>
		<g>
			<path class="st0" d="M365.2,24.8h-10c-5.5,0-10,4.5-10,10s4.5,10,10,10h10c5.5,0,10-4.5,10-10S370.8,24.8,365.2,24.8z"/>
		</g>
	</g>
	<g>
		<g>
			<path class="st0" d="M215.2,24.8h-10c-5.5,0-10,4.5-10,10s4.5,10,10,10h10c5.5,0,10-4.5,10-10S220.8,24.8,215.2,24.8z"/>
		</g>
	</g>
	<g>
		<g>
			<path class="st0" d="M165.2,24.8h-10c-5.5,0-10,4.5-10,10s4.5,10,10,10h10c5.5,0,10-4.5,10-10S170.8,24.8,165.2,24.8z"/>
		</g>
	</g>
	<g>
		<g>
			<path class="st0" d="M115.2,24.8h-10c-5.5,0-10,4.5-10,10s4.5,10,10,10h10c5.5,0,10-4.5,10-10S120.8,24.8,115.2,24.8z"/>
		</g>
	</g>
	<g>
		<g>
			<path class="st0" d="M159.2,217.9c-1.9-1.9-4.4-2.9-7.1-2.9c-2.6,0-5.2,1.1-7.1,2.9c-1.9,1.9-2.9,4.4-2.9,7.1
				c0,2.6,1.1,5.2,2.9,7.1c1.9,1.9,4.4,2.9,7.1,2.9c2.6,0,5.2-1.1,7.1-2.9c1.9-1.9,2.9-4.4,2.9-7.1S161.1,219.8,159.2,217.9z"/>
		</g>
	</g>
	<g>
		<g>
			<path class="st0" d="M204.7,65.2h-41.1c-11.8,0-21.4,9.6-21.4,21.4v103.7c0,5.5,4.5,10,10,10s10-4.5,10-10v-43.5h44v202h-44V264
				c0-5.5-4.5-10-10-10s-10,4.5-10,10v94.9c0,1.4,0.3,2.7,0.8,4l32,73.1c1.6,3.6,5.2,6,9.2,6c4,0,7.6-2.4,9.2-6l32-73.1
				c0.6-1.3,0.8-2.6,0.8-4V86.6C226.1,74.8,216.5,65.2,204.7,65.2z M184.1,407l-16.7-38.2h33.4L184.1,407z M206.1,126.9h-44v0V86.6
				c0-0.8,0.6-1.4,1.4-1.4h41.1c0.8,0,1.4,0.6,1.4,1.4L206.1,126.9L206.1,126.9z"/>
		</g>
	</g>
</g>
</svg>
