<?xml version="1.0" encoding="utf-8"?>
<!-- Generator: Adobe Illustrator 22.1.0, SVG Export Plug-In . SVG Version: 6.00 Build 0)  -->
<svg version="1.1" id="Capa_1" xmlns="http://www.w3.org/2000/svg" xmlns:xlink="http://www.w3.org/1999/xlink" x="0px" y="0px"
	 viewBox="0 0 512 512" style="enable-background:new 0 0 512 512;" xml:space="preserve">
<style type="text/css">
	.st0{fill:#FFFFFF;}
</style>
<g>
	<g>
		<path class="st0" d="M454,149.1c6.5-8,10.5-18.2,10.5-29.3v-9.1c0-25.6-20.9-46.5-46.5-46.5s-46.5,20.9-46.5,46.5v9.1
			c0,11.1,3.9,21.3,10.5,29.3c-8,2.2-15.5,5.6-22.5,10.2v-7.3c0-30.2-24.5-54.7-54.7-54.7h-6.5c7.7-9.4,12.4-21.5,12.4-34.6v-8.1
			c0-30.1-24.5-54.6-54.6-54.6s-54.6,24.5-54.6,54.6v8.1c0,13.1,4.7,25.2,12.4,34.6h-6.5c-30.2,0-54.7,24.5-54.7,54.7v7.4
			c-7-4.6-14.6-8.1-22.7-10.4c6.5-8,10.5-18.2,10.5-29.3v-9.1c0-25.6-20.9-46.5-46.5-46.5S47.5,85,47.5,110.7v9.1
			c0,11.1,3.9,21.3,10.5,29.3c-33.4,9.2-58,39.8-58,76.1V307c0,17.4,14.1,31.5,31.5,31.5h8.4V502c0,5.5,4.5,10,10,10h43.9
			c0,0,0,0,0.1,0s0,0,0.1,0h43.9c5.5,0,10-4.5,10-10V338.6h8.5c17.3,0,31.4-14.1,31.5-31.4c3.2,1.2,6.6,2.2,10.1,2.8v192
			c0,5.5,4.5,10,10,10h96c5.5,0,10-4.5,10-10v-96.9c0-5.5-4.5-10-10-10s-10,4.5-10,10V492h-28V323.3c0-5.5-4.5-10-10-10
			s-10,4.5-10,10V492h-28V279.6h76v48.2c0,5.5,4.5,10,10,10s10-4.5,10-10V310c3.4-0.6,6.7-1.5,9.9-2.7c0.1,17.3,14.2,31.3,31.5,31.3
			h8.5V502c0,5.5,4.5,10,10,10H418c0,0,0,0,0.1,0s0,0,0.1,0h43.9c5.5,0,10-4.5,10-10V338.6h8.4c17.4,0,31.5-14.1,31.5-31.5v-81.8
			C512,188.9,487.4,158.3,454,149.1z M67.5,110.6C67.5,96,79.4,84.2,94,84.2s26.5,11.9,26.5,26.5v9.1c0,14.6-11.9,26.5-26.5,26.5
			s-26.5-11.9-26.5-26.5V110.6z M127.9,492H104V338c0-5.5-4.5-10-10-10s-10,4.5-10,10v10.5c-0.1,0.5-0.1,1-0.1,1.5v142H59.9V299h68
			V492z M168,307c0,6.4-5.2,11.5-11.5,11.5h-8.5v-53.2c0-5.5-4.5-10-10-10s-10,4.5-10,10V279h-68v-45.5c0-5.5-4.5-10-10-10
			s-10,4.5-10,10v85.1h-8.4c-6.4,0-11.5-5.2-11.5-11.5v-81.8c0-32.5,26.4-58.9,58.9-58.9h30.2c16.6,0,32.5,7,43.6,19.3c0,0,0,0,0,0
			v70.5c0,14.7,5.8,28,15.3,37.9L168,307L168,307z M256.1,20c19.1,0,34.6,15.5,34.6,34.6v8.1c0,19.1-15.5,34.6-34.6,34.6
			s-34.6-15.5-34.6-34.6v-8.1l0,0C221.5,35.5,237,20,256.1,20z M339.5,256.1c0,15.9-10.8,29.4-25.4,33.4V152.1c0-5.5-4.5-10-10-10
			s-10,4.5-10,10v107.5h-76V152.1c0-5.5-4.5-10-10-10s-10,4.5-10,10v137.5c-14.6-4.1-25.4-17.5-25.4-33.4v-104
			c0-19.1,15.6-34.7,34.7-34.7h38.3v27.3c0,5.5,4.5,10,10,10c5.5,0,10-4.5,10-10v-27.3h39c19.1,0,34.7,15.6,34.7,34.7V256.1z
			 M391.5,110.6c0-14.6,11.9-26.5,26.5-26.5s26.5,11.9,26.5,26.5v9.1c0,14.6-11.9,26.5-26.5,26.5s-26.5-11.9-26.5-26.5V110.6z
			 M452.1,492h-23.9V350c0-0.5-0.1-1-0.1-1.5V338c0-5.5-4.5-10-10-10s-10,4.5-10,10v154h-23.9V299h68V492z M480.5,318.6h-8.4v-85.1
			c0-5.5-4.5-10-10-10s-10,4.5-10,10V279h-68v-13.6c0-5.5-4.5-10-10-10s-10,4.5-10,10v53.2h-8.5c-6.4,0-11.5-5.2-11.5-11.5v-12.8
			c9.6-9.9,15.5-23.3,15.5-38.1v-70.7c11.1-12.1,26.9-19.1,43.4-19.1h30.2c32.5,0,58.9,26.4,58.9,58.9V307h0
			C492,313.4,486.8,318.6,480.5,318.6z"/>
	</g>
</g>
<g>
	<g>
		<path class="st0" d="M311.2,358.6c-1.9-1.9-4.4-2.9-7.1-2.9s-5.2,1.1-7.1,2.9c-1.9,1.9-2.9,4.4-2.9,7.1s1.1,5.2,2.9,7.1
			c1.9,1.9,4.4,2.9,7.1,2.9s5.2-1.1,7.1-2.9c1.9-1.9,2.9-4.4,2.9-7.1S313.1,360.5,311.2,358.6z"/>
	</g>
</g>
<g>
	<g>
		<path class="st0" d="M262.9,175c-1.9-1.9-4.4-2.9-7.1-2.9c-2.6,0-5.2,1.1-7.1,2.9c-1.9,1.9-2.9,4.4-2.9,7.1c0,2.6,1.1,5.2,2.9,7.1
			c1.9,1.9,4.4,2.9,7.1,2.9c2.6,0,5.2-1.1,7.1-2.9c1.9-1.9,2.9-4.4,2.9-7.1C265.8,179.4,264.7,176.8,262.9,175z"/>
	</g>
</g>
</svg>
