<?xml version="1.0" encoding="utf-8"?>
<!-- Generator: Adobe Illustrator 22.1.0, SVG Export Plug-In . SVG Version: 6.00 Build 0)  -->
<svg version="1.1" id="Capa_1" xmlns="http://www.w3.org/2000/svg" xmlns:xlink="http://www.w3.org/1999/xlink" x="0px" y="0px"
	 viewBox="0 0 512 512" style="enable-background:new 0 0 512 512;" xml:space="preserve">
<style type="text/css">
	.st0{fill:#FFFFFF;}
</style>
<g>
	<g>
		<path class="st0" d="M358.8,20.1H152.9c-16.5,0-30,13.5-30,30v151.9c0,16.5,13.5,30,30,30h205.9c16.5,0,30-13.5,30-30V50.1
			C388.8,33.6,375.4,20.1,358.8,20.1z M368.8,202.1c0,5.5-4.5,10-10,10H152.9c-5.5,0-10-4.5-10-10V50.1c0-5.5,4.5-10,10-10h205.9
			c5.5,0,10,4.5,10,10V202.1z"/>
	</g>
</g>
<g>
	<g>
		<path class="st0" d="M292.9,156.1H174.4c-5.5,0-10,4.5-10,10s4.5,10,10,10h118.5c5.5,0,10-4.5,10-10S298.4,156.1,292.9,156.1z"/>
	</g>
</g>
<g>
	<g>
		<path class="st0" d="M342.2,159c-1.9-1.9-4.4-2.9-7.1-2.9c-2.6,0-5.2,1.1-7.1,2.9c-1.9,1.9-2.9,4.4-2.9,7.1c0,2.6,1.1,5.2,2.9,7.1
			c1.9,1.9,4.4,2.9,7.1,2.9c2.6,0,5.2-1.1,7.1-2.9s2.9-4.4,2.9-7.1C345.1,163.4,344.1,160.9,342.2,159z"/>
	</g>
</g>
<g>
	<g>
		<path class="st0" d="M335.1,60.1H174.4c-5.5,0-10,4.5-10,10s4.5,10,10,10h160.8c5.5,0,10-4.5,10-10S340.7,60.1,335.1,60.1z"/>
	</g>
</g>
<g>
	<g>
		<path class="st0" d="M335.1,108.1H174.4c-5.5,0-10,4.5-10,10s4.5,10,10,10h160.8c5.5,0,10-4.5,10-10S340.7,108.1,335.1,108.1z"/>
	</g>
</g>
<g>
	<g>
		<path class="st0" d="M117.9,343.9H30c-16.5,0-30,13.5-30,30v88c0,16.5,13.5,30,30,30h88c16.5,0,30-13.5,30-30v-88
			C147.9,357.4,134.5,343.9,117.9,343.9z M127.9,461.9c0,5.5-4.5,10-10,10H30c-5.5,0-10-4.5-10-10v-88c0-5.5,4.5-10,10-10h88
			c5.5,0,10,4.5,10,10L127.9,461.9L127.9,461.9z"/>
	</g>
</g>
<g>
	<g>
		<path class="st0" d="M300,343.9h-88c-16.5,0-30,13.5-30,30v88c0,16.5,13.5,30,30,30h88c16.5,0,30-13.5,30-30v-88
			C330,357.4,316.5,343.9,300,343.9z M310,461.9c0,5.5-4.5,10-10,10h-88c-5.5,0-10-4.5-10-10v-88c0-5.5,4.5-10,10-10h88
			c5.5,0,10,4.5,10,10V461.9z"/>
	</g>
</g>
<g>
	<g>
		<path class="st0" d="M482,343.9h-88c-16.5,0-30,13.5-30,30v88c0,16.5,13.5,30,30,30h88c16.5,0,30-13.5,30-30v-88
			C512,357.4,498.5,343.9,482,343.9z M492,461.9c0,5.5-4.5,10-10,10h-88c-5.5,0-10-4.5-10-10v-88c0-5.5,4.5-10,10-10h88
			c5.5,0,10,4.5,10,10V461.9z"/>
	</g>
</g>
<g>
	<g>
		<path class="st0" d="M428,266.2H266V254c0-5.5-4.5-10-10-10s-10,4.5-10,10v12.1h-44.1c-5.5,0-10,4.5-10,10c0,5.5,4.5,10,10,10H246
			v27.3c0,5.5,4.5,10,10,10s10-4.5,10-10v-27.3h162v31.2c0,5.5,4.5,10,10,10c5.5,0,10-4.5,10-10v-31.2
			C448,275.1,439.1,266.2,428,266.2z"/>
	</g>
</g>
<g>
	<g>
		<path class="st0" d="M127.9,266.2H84c-11,0-20,9-20,20v31.2c0,5.5,4.5,10,10,10c5.5,0,10-4.5,10-10v-31.2h44c5.5,0,10-4.5,10-10
			C137.9,270.6,133.5,266.2,127.9,266.2z"/>
	</g>
</g>
<g>
	<g>
		<path class="st0" d="M171.5,269.1c-1.9-1.9-4.4-2.9-7.1-2.9c-2.6,0-5.2,1.1-7.1,2.9c-1.9,1.9-2.9,4.4-2.9,7.1
			c0,2.6,1.1,5.2,2.9,7.1c1.9,1.9,4.4,2.9,7.1,2.9c2.6,0,5.2-1.1,7.1-2.9c1.9-1.9,2.9-4.4,2.9-7.1
			C174.4,273.5,173.3,270.9,171.5,269.1z"/>
	</g>
</g>
</svg>
