<svg xmlns="http://www.w3.org/2000/svg" viewBox="0 0 67.64 66.4"><defs><style>.cls-1{fill:#fff;}</style></defs><title>icon_logo1</title><g id="圖層_2" data-name="圖層 2"><g id="Layer_1" data-name="Layer 1"><path class="cls-1" d="M58.73,39.6l8.91-1.72-1-14.27-9.41-.45a26,26,0,0,0-2.31-4.22,25.35,25.35,0,0,0-3.18-3.84l3.07-8.85L41.92,0l-5.1,7.93a25.2,25.2,0,0,0-9.72.72L21,1.57l-11.85,8L13.43,18A25.59,25.59,0,0,0,9.2,26.74L0,28.51,1,42.78l9.41.45a24.88,24.88,0,0,0,2.3,4.23,26.46,26.46,0,0,0,3.19,3.83l-3.07,8.85L25.72,66.4l5.1-7.93a25.61,25.61,0,0,0,9.72-.72l6.13,7.08,11.85-8-1-1.86A9.49,9.49,0,0,0,58.73,39.6ZM52.52,53.53H34A20.57,20.57,0,0,1,23.37,15.34a20.45,20.45,0,0,1,10.6-3,20.72,20.72,0,0,1,17.64,10,20.47,20.47,0,0,1,2.8,12.78,7.47,7.47,0,0,0-4.32-1.39h-.36A10,10,0,0,0,47,31.35a13.07,13.07,0,0,0-19.73-9.6,13.07,13.07,0,0,0,2.26,23.48,6.75,6.75,0,0,1,5.43-5.07,2.48,2.48,0,0,1,0-.27,7.07,7.07,0,0,1,13.48-3,4.65,4.65,0,0,1,6.3,3.53,6.72,6.72,0,0,1-2.15,13.1Z"/></g></g></svg>